<svg width="60" height="43" viewBox="0 0 60 43" fill="none" xmlns="http://www.w3.org/2000/svg">
<path d="M2 3.41979C5.30099 6.12674 8.43525 9.00461 11.7256 11.7414C14.2122 13.8096 16.6958 15.7644 19.5809 17.5389C20.9713 18.394 22.1407 19.5675 23.6421 20.2798C25.4398 21.1328 29.3924 22.8953 30.3752 24.1646C31.2685 25.3183 36.0168 21.246 36.5205 20.8911C38.0443 19.8176 39.7747 18.8478 41.4367 17.8938C43.177 16.8948 44.1104 15.3635 45.391 14.0682C47.3059 12.1316 48.9815 9.91971 51.2959 8.2116C52.3291 7.44903 53.8146 6.69603 54.4219 5.68752C54.9879 4.74768 56.0864 2.45064 57.3075 2" stroke="#FFAD60" stroke-width="3" stroke-linecap="round"/>
<path d="M2.40045 20.05C5.70144 22.757 8.8357 25.6349 12.126 28.3716C14.6127 30.4399 17.0962 32.3947 19.9813 34.1691C21.3717 35.0243 22.5411 36.1977 24.0425 36.9101C25.8402 37.763 29.7929 39.5255 30.7756 40.7948C31.6689 41.9485 36.4172 37.8762 36.9209 37.5214C38.4448 36.4478 40.1751 35.4781 41.8371 34.524C43.5774 33.5251 44.5108 31.9937 45.7915 30.6985C47.7063 28.7618 49.3819 26.55 51.6963 24.8418C52.7296 24.0793 54.2151 23.3263 54.8224 22.3178C55.3884 21.3779 56.4868 19.0809 57.708 18.6302" stroke="#FFAD60" stroke-width="3" stroke-linecap="round"/>
</svg>
