<svg width="69" height="52" viewBox="0 0 69 52" fill="none" xmlns="http://www.w3.org/2000/svg">
<path d="M3.44388 2C3.44388 1.17157 2.77231 0.5 1.94388 0.5C1.11545 0.5 0.443878 1.17157 0.443878 2L3.44388 2ZM7.91022 14.4873L9.12491 13.6072L7.91022 14.4873ZM39.439 37.0989L39.7645 35.6346L39.439 37.0989ZM68.2771 41.3031C68.8629 40.7173 68.8629 39.7675 68.2771 39.1817L58.7311 29.6358C58.1453 29.05 57.1956 29.05 56.6098 29.6358C56.024 30.2216 56.024 31.1713 56.6098 31.7571L65.0951 40.2424L56.6098 48.7277C56.024 49.3135 56.024 50.2632 56.6098 50.849C57.1956 51.4348 58.1453 51.4348 58.7311 50.849L68.2771 41.3031ZM0.443878 2C0.443878 7.92072 4.09291 11.7752 6.69554 15.3674L9.12491 13.6072C6.20798 9.58129 3.44388 6.69561 3.44388 2L0.443878 2ZM6.69554 15.3674C14.8654 26.6434 26.6708 35.7966 39.1134 38.5631L39.7645 35.6346C28.2333 33.0707 16.9989 24.475 9.12491 13.6072L6.69554 15.3674ZM39.1134 38.5631C46.3398 40.1699 54.2732 42.1326 61.9289 42.1326V39.1326C54.6822 39.1326 47.1318 37.2727 39.7645 35.6346L39.1134 38.5631ZM61.9289 42.1326C62.922 42.1326 63.8825 42.0245 64.7462 41.9283C65.6364 41.8292 66.4273 41.7424 67.2164 41.7424V38.7424C66.233 38.7424 65.2765 38.8507 64.4143 38.9467C63.5255 39.0457 62.7286 39.1326 61.9289 39.1326V42.1326Z" fill="#FFAD60"/>
</svg>
