<svg width="64" height="64" viewBox="0 0 64 64" fill="none" xmlns="http://www.w3.org/2000/svg">
<path d="M6.55469 56.7283C8.47021 55.3142 11.5875 53.7205 12.8291 51.5933C13.2696 50.8386 12.2241 48.9082 12.0123 48.122C11.4616 46.0772 10.8468 44.142 10.4702 42.0553C10.3861 41.5895 9.83471 37.9106 10.5028 38.2609C11.7782 38.9296 13.2397 39.4471 14.5895 39.941C17.8759 41.1434 21.071 42.6037 24.2794 44.0204C24.752 44.229 29.1529 46.433 29.243 45.4842C29.4687 43.1078 28.4416 40.2989 28.1329 37.9292C27.9306 36.3759 27.7177 34.8519 27.6112 33.3011C27.5377 32.2304 29.0446 33.316 29.6346 33.4867C30.8964 33.8518 32.2446 34.2645 33.4183 34.8798C33.5894 34.9696 35.608 35.6323 35.5909 35.2433C35.5259 33.7643 35.4965 32.3251 35.5945 30.8456C35.6474 30.0452 35.8806 29.3176 35.9532 28.5528C36.063 27.3969 36.8662 28.2248 37.7178 28.6525C38.1464 28.8678 42.1014 30.9891 42.2612 30.036C42.9717 25.7976 42.4494 21.2042 41.6903 16.9409C41.3388 14.9669 41.0025 12.9882 40.5867 11.0258C40.3782 10.0419 42.5891 11.8187 42.8021 11.9596C45.1285 13.4979 47.7115 14.8601 50.1855 16.1342C51.7598 16.945 53.4408 18.7761 55.1479 19.1794C55.4207 19.2439 53.9596 15.8639 53.8012 15.5466C53.4944 14.9319 52.2522 12.8557 52.6891 12.1933C53.5974 10.8158 55.1697 9.50938 56.2949 8.27998C56.9831 7.52804 57.6609 6.40625 58.7487 6.30762M27.5449 57.3559C27.9453 57.7191 27.3629 56.7003 27.3179 56.6155C27.0749 56.1581 28.2493 55.8814 28.4763 55.795M55.5117 31.2498C56.0892 33.3012 56.2852 31.2813 56.7177 31.7966M43.5 56.6155C44.884 57.1548 46.2357 57.6435 47.6982 57.8563C48.033 57.905 48.3529 57.8964 48.6707 58.0202C48.7621 58.0558 49.4125 58.1833 49.4862 58.1526C50.1933 57.8579 49.8886 55.1496 49.9582 54.5173C50.1078 53.1571 49.9924 51.881 49.8903 50.5185" stroke="url(#paint0_linear_853_12291)" stroke-width="6" stroke-linecap="round"/>
<path d="M50 50.097C51.384 50.6363 52.7357 51.125 54.1982 51.3378C54.533 51.3866 54.8529 51.3779 55.1707 51.5018C55.2621 51.5374 55.9125 51.6648 55.9862 51.6341C56.6933 51.3394 56.3886 48.6311 56.4582 47.9988C56.6078 46.6386 56.4924 45.3625 56.3903 44" stroke="url(#paint1_linear_853_12291)" stroke-width="6" stroke-linecap="round"/>
<defs>
<linearGradient id="paint0_linear_853_12291" x1="7" y1="62" x2="61.5" y2="13.5" gradientUnits="userSpaceOnUse">
<stop stop-color="#FF60A8"/>
<stop offset="1" stop-color="#FF6079"/>
</linearGradient>
<linearGradient id="paint1_linear_853_12291" x1="11.6382" y1="59" x2="66.1382" y2="10.5" gradientUnits="userSpaceOnUse">
<stop stop-color="#FF60A8"/>
<stop offset="1" stop-color="#FF6079"/>
</linearGradient>
</defs>
</svg>
